HIERARCHY
ROOT Hips
{
	OFFSET 0.000001 107.585541 -0.292875
	CHANNELS 6 Xposition Yposition Zposition Xrotation Yrotation Zrotation
	JOINT Spine
	{
		OFFSET -0.023067 13.156998 0.957426
		CHANNELS 6 Xposition Yposition Zposition Xrotation Yrotation Zrotation
		JOINT Spine1
		{
			OFFSET 0.000000 9.894669 0.072741
			CHANNELS 3 Xrotation Yrotation Zrotation
			JOINT Spine2
			{
				OFFSET 0.000000 10.499985 -0.058234
				CHANNELS 3 Xrotation Yrotation Zrotation
				JOINT Neck
				{
					OFFSET -0.000000 26.776306 -4.691216
					CHANNELS 6 Xposition Yposition Zposition Xrotation Yrotation Zrotation
					JOINT Head
					{
						OFFSET 0.000000 14.063217 3.449322
						CHANNELS 6 Xposition Yposition Zposition Xrotation Yrotation Zrotation
						JOINT HeadTop_End
						{
							OFFSET 0.000000 19.645248 2.611582
							CHANNELS 6 Xposition Yposition Zposition Xrotation Yrotation Zrotation
							End Site
							{
								OFFSET 0.000000 14.113129 0.000000
							}
						}
						JOINT L_Eye
						{
							OFFSET 3.570282 7.264572 7.838836
							CHANNELS 6 Xposition Yposition Zposition Xrotation Yrotation Zrotation
							End Site
							{
								OFFSET 0.000000 14.113129 0.000000
							}
						}
						JOINT R_Eye
						{
							OFFSET -3.524154 7.264282 7.838838
							CHANNELS 6 Xposition Yposition Zposition Xrotation Yrotation Zrotation
							End Site
							{
								OFFSET 0.000000 14.113129 0.000000
							}
						}
					}
				}
				JOINT L_Shoulder
				{
					OFFSET 7.980431 21.886398 -6.266449
					CHANNELS 6 Xposition Yposition Zposition Xrotation Yrotation Zrotation
					JOINT L_Arm
					{
						OFFSET 10.677479 -5.478394 -0.078065
						CHANNELS 3 Xrotation Yrotation Zrotation
						JOINT L_ForeArm
						{
							OFFSET 27.567778 0.000015 0.000000
							CHANNELS 3 Xrotation Yrotation Zrotation
							JOINT L_Hand
							{
								OFFSET 27.500092 -0.000015 0.480016
								CHANNELS 3 Xrotation Yrotation Zrotation
								JOINT L_HandThumb1
								{
									OFFSET 5.751503 -2.607742 4.214736
									CHANNELS 6 Xposition Yposition Zposition Xrotation Yrotation Zrotation
									JOINT L_HandThumb2
									{
										OFFSET 2.728218 -1.585464 1.645159
										CHANNELS 6 Xposition Yposition Zposition Xrotation Yrotation Zrotation
										JOINT L_HandThumb3
										{
											OFFSET 2.690651 -1.563644 1.622507
											CHANNELS 6 Xposition Yposition Zposition Xrotation Yrotation Zrotation
											JOINT L_HandThumb4
											{
												OFFSET 2.811111 -1.633636 1.695147
												CHANNELS 6 Xposition Yposition Zposition Xrotation Yrotation Zrotation
												End Site
												{
													OFFSET 2.811104 -1.633652 1.695142
												}
											}
										}
									}
								}
								JOINT L_HandIndex1
								{
									OFFSET 13.704086 -1.118973 2.963548
									CHANNELS 6 Xposition Yposition Zposition Xrotation Yrotation Zrotation
									JOINT L_HandIndex2
									{
										OFFSET 2.538002 -0.000046 0.044317
										CHANNELS 3 Xrotation Yrotation Zrotation
										JOINT L_HandIndex3
										{
											OFFSET 3.551018 0.000015 0.062044
											CHANNELS 3 Xrotation Yrotation Zrotation
											JOINT L_HandIndex4
											{
												OFFSET 3.082214 0.000031 0.053894
												CHANNELS 3 Xrotation Yrotation Zrotation
												End Site
												{
													OFFSET 3.082214 0.000046 0.053895
												}
											}
										}
									}
								}
								JOINT L_HandMiddle1
								{
									OFFSET 13.314011 -0.054794 0.195248
									CHANNELS 6 Xposition Yposition Zposition Xrotation Yrotation Zrotation
									JOINT L_HandMiddle2
									{
										OFFSET 4.054405 -0.000015 0.070800
										CHANNELS 3 Xrotation Yrotation Zrotation
										JOINT L_HandMiddle3
										{
											OFFSET 2.984230 -0.000031 0.052059
											CHANNELS 3 Xrotation Yrotation Zrotation
											JOINT L_HandMiddle4
											{
												OFFSET 3.040154 -0.000031 0.053016
												CHANNELS 3 Xrotation Yrotation Zrotation
												End Site
												{
													OFFSET 3.040154 0.000000 0.053016
												}
											}
										}
									}
								}
								JOINT L_HandRing1
								{
									OFFSET 12.889366 0.014862 -3.304775
									CHANNELS 6 Xposition Yposition Zposition Xrotation Yrotation Zrotation
									JOINT L_HandRing2
									{
										OFFSET 4.066383 0.000000 0.071006
										CHANNELS 3 Xrotation Yrotation Zrotation
										JOINT L_HandRing3
										{
											OFFSET 2.688652 0.000061 0.047021
											CHANNELS 3 Xrotation Yrotation Zrotation
											JOINT L_HandRing4
											{
												OFFSET 2.892899 0.000000 0.050566
												CHANNELS 3 Xrotation Yrotation Zrotation
												End Site
												{
													OFFSET 2.892906 0.000015 0.050566
												}
											}
										}
									}
								}
								JOINT L_HandPinky1
								{
									OFFSET 12.770164 -1.052109 -6.055603
									CHANNELS 6 Xposition Yposition Zposition Xrotation Yrotation Zrotation
									JOINT L_HandPinky2
									{
										OFFSET 3.092682 -0.000046 0.054011
										CHANNELS 3 Xrotation Yrotation Zrotation
										JOINT L_HandPinky3
										{
											OFFSET 2.176254 0.000031 0.038088
											CHANNELS 3 Xrotation Yrotation Zrotation
											JOINT L_HandPinky4
											{
												OFFSET 2.208496 -0.000031 0.038607
												CHANNELS 3 Xrotation Yrotation Zrotation
												End Site
												{
													OFFSET 2.208504 -0.000031 0.038607
												}
											}
										}
									}
								}
							}
						}
					}
				}
				JOINT R_Shoulder
				{
					OFFSET -7.980434 21.886810 -6.266449
					CHANNELS 6 Xposition Yposition Zposition Xrotation Yrotation Zrotation
					JOINT R_Arm
					{
						OFFSET -10.677509 -5.479004 -0.078070
						CHANNELS 3 Xrotation Yrotation Zrotation
						JOINT R_ForeArm
						{
							OFFSET -27.567785 0.000000 -0.000000
							CHANNELS 3 Xrotation Yrotation Zrotation
							JOINT R_Hand
							{
								OFFSET -27.500015 0.000000 0.480015
								CHANNELS 3 Xrotation Yrotation Zrotation
								JOINT R_HandThumb1
								{
									OFFSET -5.971848 -2.424500 3.942988
									CHANNELS 6 Xposition Yposition Zposition Xrotation Yrotation Zrotation
									JOINT R_HandThumb2
									{
										OFFSET -2.728195 -1.584976 1.645155
										CHANNELS 6 Xposition Yposition Zposition Xrotation Yrotation Zrotation
										JOINT R_HandThumb3
										{
											OFFSET -2.690704 -1.563995 1.622524
											CHANNELS 6 Xposition Yposition Zposition Xrotation Yrotation Zrotation
											JOINT R_HandThumb4
											{
												OFFSET -2.811142 -1.633011 1.695130
												CHANNELS 6 Xposition Yposition Zposition Xrotation Yrotation Zrotation
												End Site
												{
													OFFSET -2.811142 -1.632996 1.695138
												}
											}
										}
									}
								}
								JOINT R_HandIndex1
								{
									OFFSET -13.521736 -0.054581 0.198885
									CHANNELS 6 Xposition Yposition Zposition Xrotation Yrotation Zrotation
									JOINT R_HandIndex2
									{
										OFFSET -4.381210 0.000015 0.076519
										CHANNELS 3 Xrotation Yrotation Zrotation
										JOINT R_HandIndex3
										{
											OFFSET -3.478577 0.000031 0.060751
											CHANNELS 3 Xrotation Yrotation Zrotation
											JOINT R_HandIndex4
											{
												OFFSET -6.319054 -0.000015 0.110473
												CHANNELS 3 Xrotation Yrotation Zrotation
												End Site
												{
													OFFSET -6.319061 0.000015 0.110474
												}
											}
										}
									}
								}
								JOINT R_HandRing1
								{
									OFFSET -12.702789 0.785950 -3.722343
									CHANNELS 6 Xposition Yposition Zposition Xrotation Yrotation Zrotation
									JOINT R_HandRing2
									{
										OFFSET -4.066383 0.000000 0.070999
										CHANNELS 3 Xrotation Yrotation Zrotation
										JOINT R_HandRing3
										{
											OFFSET -2.688583 0.000015 0.047006
											CHANNELS 3 Xrotation Yrotation Zrotation
											JOINT R_HandRing4
											{
												OFFSET -2.892967 -0.000015 0.050556
												CHANNELS 3 Xrotation Yrotation Zrotation
												End Site
												{
													OFFSET -2.892960 0.000015 0.050555
												}
											}
										}
									}
								}
								JOINT R_HandPinky1
								{
									OFFSET -12.544357 -0.205673 -6.499258
									CHANNELS 6 Xposition Yposition Zposition Xrotation Yrotation Zrotation
									JOINT R_HandPinky2
									{
										OFFSET -3.092621 0.000000 0.053982
										CHANNELS 3 Xrotation Yrotation Zrotation
										JOINT R_HandPinky3
										{
											OFFSET -2.176262 0.000000 0.037988
											CHANNELS 3 Xrotation Yrotation Zrotation
											JOINT R_HandPinky4
											{
												OFFSET -2.208572 0.000000 0.038550
												CHANNELS 3 Xrotation Yrotation Zrotation
												End Site
												{
													OFFSET -2.208565 0.000000 0.038550
												}
											}
										}
									}
								}
							}
						}
					}
				}
			}
		}
	}
	JOINT L_UpLeg
	{
		OFFSET 10.121319 -5.316734 0.163048
		CHANNELS 6 Xposition Yposition Zposition Xrotation Yrotation Zrotation
		JOINT L_Leg
		{
			OFFSET -0.000002 -40.854481 0.206897
			CHANNELS 3 Xrotation Yrotation Zrotation
			JOINT L_Foot
			{
				OFFSET 0.000002 -52.055374 -3.073691
				CHANNELS 3 Xrotation Yrotation Zrotation
				JOINT L_ToeBase
				{
					OFFSET 1.169127 -9.354687 13.784521
					CHANNELS 6 Xposition Yposition Zposition Xrotation Yrotation Zrotation
					JOINT L_Toe_End
					{
						OFFSET 0.516993 -0.004916 8.312323
						CHANNELS 6 Xposition Yposition Zposition Xrotation Yrotation Zrotation
						End Site
						{
							OFFSET 0.516995 -0.004916 8.312323
						}
					}
				}
			}
		}
	}
	JOINT R_UpLeg
	{
		OFFSET -10.121301 -5.316544 0.163048
		CHANNELS 6 Xposition Yposition Zposition Xrotation Yrotation Zrotation
		JOINT R_Leg
		{
			OFFSET 0.000055 -40.854687 0.206898
			CHANNELS 3 Xrotation Yrotation Zrotation
			JOINT R_Foot
			{
				OFFSET -0.000054 -52.055359 -3.073693
				CHANNELS 3 Xrotation Yrotation Zrotation
				JOINT R_ToeBase
				{
					OFFSET -1.169123 -9.354716 13.784500
					CHANNELS 6 Xposition Yposition Zposition Xrotation Yrotation Zrotation
					JOINT R_Toe_End
					{
						OFFSET -0.516972 -0.004950 8.311937
						CHANNELS 6 Xposition Yposition Zposition Xrotation Yrotation Zrotation
						End Site
						{
							OFFSET -0.516973 -0.004951 8.311935
						}
					}
				}
			}
		}
	}
}
MOTION
Frames: 4
Frame Time: 0.033333
-7.136125 89.989952 3.923514 27.129904 25.215283 -13.875833 -0.023069 13.156981 0.957428 11.173206 1.022384 -0.312417 14.644293 -0.431017 -1.423651 14.679596 -0.526940 -1.326277 -0.000003 26.776304 -4.691227 6.673503 1.793334 -21.336982 -0.000002 14.063205 3.449316 -14.937704 -8.987554 -10.469528 0.000002 19.645264 2.611579 0.000000 -0.000000 -0.000001 3.570290 7.264587 7.838845 0.000000 -0.000000 -0.000001 -3.524150 7.264282 7.838846 0.000000 -0.000000 -0.000001 7.980421 21.886377 -6.266462 0.189972 0.287573 -13.860755 25.171120 23.638947 -34.512171 -191.271265 -93.680600 -205.331455 3.666226 -9.948016 -21.086910 5.751508 -2.607762 4.214740 0.926205 5.662221 2.627920 2.728240 -1.585460 1.645160 4.400022 -0.658171 -3.555707 2.690646 -1.563631 1.622506 7.402778 41.134780 -0.422991 2.811097 -1.633617 1.695146 -0.000001 0.000000 -0.000000 13.704103 -1.118987 2.963548 -4.167055 3.862507 -29.676919 1.961847 4.768827 -38.128411 4.397599 6.286239 -57.901385 -0.000000 0.000000 -0.000002 13.314025 -0.054777 0.195247 1.359299 5.090736 -17.467487 5.221853 7.105762 -71.853488 1.437714 4.495090 -35.448631 -0.000001 0.000001 -0.000002 12.889366 0.014840 -3.304774 -2.936561 14.316588 -0.159314 2.077137 5.301264 -43.135339 3.759778 6.091760 -54.408447 0.000001 0.000001 -0.000002 12.770180 -1.052118 -6.055603 2.132739 20.886669 -14.827987 2.417870 5.517624 -44.524647 6.359772 7.054772 -72.945908 -0.000003 0.000002 0.000000 -7.980434 21.886803 -6.266449 9.878812 41.748930 -8.161568 -0.092211 26.341290 38.304370 -0.022117 95.935259 0.018399 -18.364944 21.374464 18.465541 -5.971845 -2.424514 3.942976 -7.997295 22.567278 -15.751550 -2.728205 -1.585000 1.645166 6.795102 -45.017056 -9.110872 -2.690710 -1.563993 1.622512 -12.845242 21.749382 8.049259 -2.811145 -1.633005 1.695143 -0.000003 0.000004 0.000004 -13.521729 -0.054581 0.198870 -0.384486 -7.494007 4.614079 5.293930 -6.669152 70.382360 0.505568 -2.676252 20.916464 -0.000000 -0.000002 0.000002 -12.702788 0.785942 -3.722355 1.529366 -11.284258 41.415716 0.314428 -4.378157 32.054604 -0.042634 -2.448946 18.344797 0.000002 -0.000002 0.000004 -12.544356 -0.205684 -6.499266 3.233093 -12.588022 55.244807 6.441067 -7.186803 81.662049 3.600356 -6.016598 55.932586 -0.000000 -0.000000 -0.000002 10.121318 -5.316747 0.163053 -76.776025 -5.923764 9.265110 51.537244 4.471149 2.164386 -2.122142 -22.020784 -13.539679 1.169129 -9.354695 13.784520 -0.989908 0.000012 0.000000 0.516993 -0.004915 8.312326 0.000001 -0.000003 0.000000 -10.121302 -5.316537 0.163054 -58.992590 -20.420176 -23.689360 72.851324 -30.042980 -3.530456 -9.173064 -6.410731 23.799526 -1.169124 -9.354718 13.784502 -3.929673 -0.114914 3.079140 -0.516973 -0.004953 8.311937 0.000003 0.000003 -0.000001 
-6.966279 90.562149 2.931033 25.282731 22.357671 -11.782069 -0.023069 13.156996 0.957433 10.207323 0.376516 -0.860644 14.046465 -0.847481 -1.621805 14.079255 -0.868142 -1.530017 0.000002 26.776306 -4.691213 7.435423 1.902426 -20.503569 -0.000001 14.063231 3.449311 -13.639562 -6.953602 -11.006959 0.000010 19.645233 2.611587 0.000002 -0.000001 0.000001 3.570286 7.264587 7.838837 0.000002 -0.000000 0.000001 -3.524144 7.264282 7.838842 0.000002 -0.000000 0.000001 7.980438 21.886419 -6.266455 -0.347798 1.908978 -13.903130 14.214340 20.431642 -31.350947 -184.004313 -99.629620 -196.964323 2.886061 -8.593606 -22.130202 5.751517 -2.607748 4.214741 0.926203 5.662223 2.627916 2.728218 -1.585466 1.645161 4.400024 -0.658174 -3.555711 2.690673 -1.563668 1.622508 7.402781 41.134777 -0.422991 2.811113 -1.633620 1.695140 -0.000004 -0.000001 -0.000004 13.704100 -1.118988 2.963548 -4.437302 3.426718 -29.034547 1.894475 4.701498 -37.447806 4.311153 6.245595 -57.216874 -0.000001 0.000001 0.000001 13.314011 -0.054783 0.195249 1.258387 4.820254 -16.808662 5.127268 7.086781 -71.166821 1.373226 4.424144 -34.768641 -0.000000 -0.000000 -0.000003 12.889375 0.014842 -3.304773 -2.948413 14.222077 0.518643 2.003987 5.239965 -42.453570 3.675893 6.045869 -53.724530 0.000003 0.000000 0.000001 12.770162 -1.052123 -6.055602 2.173844 21.056413 -14.124648 2.342201 5.457073 -43.842568 6.263998 7.037368 -72.259317 -0.000002 0.000002 -0.000002 -7.980435 21.886812 -6.266451 9.765635 39.352026 -6.712370 -2.155492 24.582476 40.360708 0.033778 98.526558 -0.063633 -24.258139 21.667129 19.297059 -5.971838 -2.424510 3.942999 -7.997307 22.567280 -15.751567 -2.728201 -1.585008 1.645164 6.795107 -45.017049 -9.110883 -2.690700 -1.563987 1.622509 -12.845234 21.749361 8.049281 -2.811160 -1.632993 1.695149 -0.000003 0.000003 0.000004 -13.521733 -0.054590 0.198895 -0.393967 -7.404675 3.991986 5.217174 -6.644843 69.742235 0.489677 -2.637805 20.600303 -0.000000 -0.000002 -0.000001 -12.702786 0.785939 -3.722334 1.477255 -11.215344 40.784118 0.273606 -4.299791 31.421199 -0.052441 -2.407635 18.029097 -0.000000 -0.000002 -0.000002 -12.544336 -0.205680 -6.499246 3.165799 -12.537475 54.608360 6.364550 -7.173737 81.020872 3.568793 -5.994412 55.613470 -0.000002 -0.000001 0.000001 10.121319 -5.316734 0.163051 -74.597311 -6.337916 9.657146 50.728918 4.712198 2.475345 -0.935441 -19.125412 -13.458107 1.169126 -9.354694 13.784522 -1.571422 0.000008 -0.000002 0.516999 -0.004915 8.312325 0.000001 0.000003 0.000000 -10.121305 -5.316548 0.163053 -57.719224 -17.212297 -21.644357 72.071644 -29.743182 -3.402087 -9.164725 -6.189296 23.788256 -1.169122 -9.354717 13.784501 -3.260083 -0.054775 2.128266 -0.516970 -0.004952 8.311940 0.000003 0.000001 0.000000 
-7.022360 90.983475 1.658053 22.855662 18.798499 -10.199848 -0.023067 13.157005 0.957427 8.771139 0.009554 -0.850505 13.052722 -1.100242 -1.424345 13.081470 -1.041554 -1.343994 0.000002 26.776320 -4.691199 7.974680 1.665303 -18.330677 -0.000002 14.063213 3.449322 -13.831776 -5.763280 -10.215650 0.000004 19.645218 2.611583 0.000000 0.000001 -0.000003 3.570284 7.264572 7.838827 0.000000 0.000002 -0.000003 -3.524148 7.264282 7.838829 0.000000 0.000002 -0.000003 7.980437 21.886400 -6.266446 -0.694318 3.312731 -14.053945 7.340599 15.141829 -31.332694 -183.043141 -101.697965 -194.861882 2.790003 -7.993075 -22.964259 5.751522 -2.607755 4.214744 0.926205 5.662227 2.627914 2.728238 -1.585455 1.645163 4.400022 -0.658172 -3.555704 2.690661 -1.563657 1.622498 7.402785 41.134773 -0.422991 2.811098 -1.633615 1.695133 0.000001 0.000004 -0.000004 13.704116 -1.118972 2.963552 -4.755830 2.910651 -28.278709 1.815862 4.620845 -36.642923 4.209521 6.196180 -56.407394 -0.000000 0.000001 -0.000003 13.314038 -0.054779 0.195251 1.140311 4.499808 -16.030408 5.015687 7.062903 -70.354719 1.298085 4.339210 -33.964526 0.000001 -0.000005 -0.000003 12.889374 0.014842 -3.304770 -2.960940 14.110127 1.320194 1.918430 5.166330 -41.647406 3.577389 5.990305 -52.915764 0.000001 -0.000003 0.000002 12.770187 -1.052127 -6.055600 2.223965 21.256756 -13.293889 2.253649 5.384301 -43.036001 6.150998 7.015283 -71.447303 0.000003 0.000001 0.000001 -7.980434 21.886803 -6.266447 9.597428 36.896419 -5.202906 -2.417828 23.374944 41.141163 -0.002510 99.256077 0.004129 -23.347612 21.520893 18.858217 -5.971849 -2.424527 3.942978 -7.997316 22.567298 -15.751564 -2.728212 -1.585023 1.645173 6.795097 -45.017049 -9.110878 -2.690713 -1.563976 1.622512 -12.845243 21.749375 8.049267 -2.811144 -1.633019 1.695149 -0.000002 0.000004 0.000001 -13.521735 -0.054574 0.198877 -0.406602 -7.266690 3.031881 5.099630 -6.605769 68.756598 0.465587 -2.578454 20.113505 0.000001 -0.000001 0.000001 -12.702786 0.785932 -3.722342 1.398575 -11.108004 39.809536 0.212672 -4.178533 30.447559 -0.067052 -2.343952 17.542936 -0.000000 0.000000 -0.000001 -12.544357 -0.205672 -6.499265 3.063229 -12.458141 53.626144 6.247133 -7.152029 80.033623 3.520459 -5.959927 55.122103 0.000000 -0.000001 0.000001 10.121319 -5.316745 0.163053 -71.968406 -7.743617 11.036426 50.303428 4.976717 2.273707 0.099275 -16.154244 -13.506173 1.169125 -9.354696 13.784521 -2.269433 0.000009 0.000003 0.516998 -0.004915 8.312326 0.000001 0.000001 -0.000000 -10.121302 -5.316542 0.163064 -56.010765 -15.287990 -19.897417 71.149022 -28.310463 -2.861134 -9.739613 -6.292138 24.232567 -1.169118 -9.354713 13.784500 -2.260363 -0.013117 1.043772 -0.516969 -0.004952 8.311936 0.000003 0.000000 -0.000000 
-7.277762 91.515182 0.319826 20.218980 14.963625 -9.029191 -0.023067 13.156988 0.957426 7.324342 -0.093139 -0.414630 12.027673 -1.205239 -0.977010 12.050878 -1.069193 -0.906830 0.000006 26.776310 -4.691206 8.173653 1.196722 -15.007830 -0.000004 14.063210 3.449310 -14.942109 -5.301077 -8.753398 0.000006 19.645218 2.611585 -0.000002 0.000003 -0.000003 3.570288 7.264572 7.838831 -0.000002 0.000004 -0.000003 -3.524151 7.264283 7.838835 -0.000002 0.000004 -0.000003 7.980436 21.886383 -6.266444 -0.580669 3.885311 -14.218780 3.500123 8.308440 -33.248394 -183.068836 -100.503317 -193.713850 2.653981 -6.456885 -23.487200 5.751520 -2.607760 4.214740 0.926207 5.662224 2.627918 2.728232 -1.585448 1.645154 4.400023 -0.658170 -3.555707 2.690643 -1.563628 1.622508 7.402778 41.134773 -0.422993 2.811109 -1.633618 1.695144 -0.000006 0.000006 -0.000002 13.704103 -1.118979 2.963553 -5.116241 2.323666 -27.425312 1.727954 4.527884 -35.728873 4.094960 6.138352 -55.488037 0.000003 -0.000005 0.000000 13.314028 -0.054786 0.195248 1.007808 4.135140 -15.147654 4.889393 7.033870 -69.432308 1.214171 4.241482 -33.051340 0.000001 0.000001 0.000002 12.889354 0.014853 -3.304774 -2.973211 13.982741 2.230178 1.822498 5.081249 -40.731796 3.466484 5.925522 -51.997216 -0.000000 0.000000 -0.000000 12.770170 -1.052114 -6.055608 2.282884 21.483774 -12.351715 2.154342 5.300133 -42.120011 6.023026 6.988279 -70.524934 0.000003 0.000002 -0.000001 -7.980432 21.886814 -6.266456 8.799715 33.550323 -3.384309 -1.123808 24.822627 42.382393 -0.012304 98.953752 0.022822 -18.093864 20.848811 17.587925 -5.971842 -2.424506 3.942997 -7.997300 22.567300 -15.751559 -2.728209 -1.584993 1.645166 6.795100 -45.017049 -9.110866 -2.690715 -1.563990 1.622502 -12.845252 21.749366 8.049281 -2.811168 -1.632990 1.695157 -0.000002 0.000000 0.000004 -13.521728 -0.054569 0.198890 -0.419452 -7.087997 1.791106 4.950461 -6.552915 67.497726 0.435537 -2.502330 19.491688 -0.000000 0.000002 -0.000000 -12.702790 0.785934 -3.722338 1.299667 -10.967238 38.550264 0.137735 -4.021982 29.202966 -0.084934 -2.262440 16.921961 0.000001 -0.000001 -0.000000 -12.544338 -0.205680 -6.499249 2.932749 -12.353018 52.357051 6.097679 -7.121386 78.772510 3.459166 -5.915287 54.494470 0.000000 -0.000000 -0.000001 10.121318 -5.316746 0.163051 -68.638456 -9.038893 13.088056 49.472105 5.248029 2.007717 1.122019 -13.436270 -13.958278 1.169124 -9.354693 13.784523 -2.656516 0.000001 -0.000004 0.516994 -0.004915 8.312327 0.000001 0.000000 0.000000 -10.121298 -5.316549 0.163050 -53.754166 -15.120794 -18.760773 69.145038 -26.692251 -2.245938 -10.789445 -5.746256 24.699333 -1.169119 -9.354715 13.784498 -1.547240 -0.001429 0.343107 -0.516970 -0.004952 8.311934 0.000004 0.000002 -0.000000 
